<?xml version="1.0" encoding="iso-8859-1"?>
<svg viewBox = "0 0 1220 1100" xmlns="http://www.w3.org/2000/svg" xmlns:xlink="http://www.w3.org/1999/xlink">
    <!-- esc f1 f2 f3 f4 f5 f6 f7 f8 f9 f10 f11 f12 prtsc sclk pause-->
    <!-- esc -->
    <rect x="-420" width="100" y = "0" height="100" rx="15"/>
    <rect fill="white" x="-415" y = "5" width="90" height="90" rx="15"/>
    <!-- f1 f2 f3 f4 -->
    <rect x="-80" width="100" y = "0" height="100" rx="15"/>
    <rect fill="white" x="-75" y = "5" width="90" height="90" rx="15"/>
    <rect x="-180" width="100" y = "0" height="100" rx="15"/>
    <rect fill="white" x="-175" y = "5" width="90" height="90" rx="15"/>
    <rect x="20" width="100" y = "0" height="100" rx="15"/>
    <rect fill="white" x="25" y = "5" width="90" height="90" rx="15"/>
    <rect x="120" width="100" y = "0" height="100" rx="15"/>
    <rect fill="white" x="125" y = "5" width="90" height="90" rx="15"/>

    <!--f5 f6 f7 f8 -->
    <rect x="300" width="100" y = "0" height="100" rx="15"/>
    <rect fill="white" x="305" y = "5" width="90" height="90" rx="15"/>
    <rect x="400" width="100" y = "0" height="100" rx="15"/>
    <rect fill="white" x="405" y = "5" width="90" height="90" rx="15"/>
    <rect x="500" width="100" y = "0" height="100" rx="15"/>
    <rect fill="white" x="505" y = "5" width="90" height="90" rx="15"/>
    <rect x="600" width="100" y = "0" height="100" rx="15"/>
    <rect fill="white" x="605" y = "5" width="90" height="90" rx="15"/>

    <!--f9 f10 f11 f12-->
    <rect x="300" width="100" y = "0" height="100" rx="15"/>
    <rect fill="white" x="305" y = "5" width="90" height="90" rx="15"/>
    <rect x="400" width="100" y = "0" height="100" rx="15"/>
    <rect fill="white" x="405" y = "5" width="90" height="90" rx="15"/>
    <rect x="500" width="100" y = "0" height="100" rx="15"/>
    <rect fill="white" x="505" y = "5" width="90" height="90" rx="15"/>
    <rect x="600" width="100" y = "0" height="100" rx="15"/>
    <rect fill="white" x="605" y = "5" width="90" height="90" rx="15"/>
</svg>